fd_10_states
version=1
nRows=27
nColumns=17
inDegrees=yes

# SIMM Motion File Header:
name fd_10_states
datacolumns 17
datarows 27
otherdata 1
range 0.794218 0.825049
endheader
time	/jointset/r_shoulder/r_shoulder_elev/value	/jointset/r_shoulder/r_shoulder_elev/speed	/jointset/r_elbow/r_elbow_flex/value	/jointset/r_elbow/r_elbow_flex/speed	/forceset/TRIlong/activation	/forceset/TRIlong/fiber_length	/forceset/TRIlat/activation	/forceset/TRIlat/fiber_length	/forceset/TRImed/activation	/forceset/TRImed/fiber_length	/forceset/BIClong/activation	/forceset/BIClong/fiber_length	/forceset/BICshort/activation	/forceset/BICshort/fiber_length	/forceset/BRA/activation	/forceset/BRA/fiber_length
      0.794218	      0.029301	     -0.066164	     97.022412	   -146.093836	      0.020026	      0.172060	      0.456939	      0.105250	      0.452589	      0.100316	      0.238015	      0.089789	      0.020281	      0.091225	      0.020048	      0.065691
      0.795310	      0.029230	     -0.063501	     96.862357	   -146.959423	      0.020026	      0.172007	      0.455919	      0.105198	      0.451525	      0.100264	      0.236643	      0.089934	      0.020277	      0.091362	      0.020048	      0.065753
      0.796403	      0.029162	     -0.061683	     96.701357	   -147.821309	      0.020025	      0.171954	      0.454934	      0.105146	      0.450496	      0.100211	      0.235305	      0.090079	      0.020273	      0.091499	      0.020047	      0.065819
      0.798086	      0.029061	     -0.058025	     96.451345	   -149.151761	      0.020025	      0.171872	      0.453477	      0.105064	      0.448975	      0.100130	      0.233308	      0.090305	      0.020267	      0.091712	      0.020046	      0.065919
      0.799330	      0.028990	     -0.055897	     96.265248	   -150.129645	      0.020024	      0.171811	      0.452449	      0.105003	      0.447901	      0.100069	      0.231883	      0.090473	      0.020262	      0.091871	      0.020045	      0.065997
      0.800574	      0.028922	     -0.052369	     96.077935	   -151.110324	      0.020024	      0.171749	      0.451367	      0.104942	      0.446777	      0.100007	      0.230456	      0.090641	      0.020258	      0.092031	      0.020044	      0.066071
      0.801817	      0.028859	     -0.049594	     95.889405	   -152.085035	      0.020023	      0.171687	      0.449817	      0.104880	      0.445194	      0.099946	      0.228833	      0.090811	      0.020254	      0.092192	      0.020044	      0.066150
      0.803061	      0.028800	     -0.045069	     95.699661	   -153.066130	      0.020023	      0.171625	      0.448312	      0.104818	      0.443658	      0.099884	      0.227250	      0.090983	      0.020250	      0.092354	      0.020043	      0.066224
      0.804305	      0.028746	     -0.041818	     95.508697	   -154.041541	      0.020023	      0.171562	      0.446865	      0.104756	      0.442179	      0.099822	      0.225713	      0.091155	      0.020246	      0.092516	      0.020042	      0.066305
      0.805548	      0.028697	     -0.036858	     95.316520	   -155.023144	      0.020022	      0.171499	      0.445471	      0.104693	      0.440756	      0.099759	      0.224219	      0.091329	      0.020242	      0.092680	      0.020042	      0.066379
      0.806792	      0.028653	     -0.034172	     95.123125	   -155.993777	      0.020022	      0.171435	      0.444130	      0.104630	      0.439386	      0.099696	      0.222767	      0.091503	      0.020238	      0.092845	      0.020041	      0.066463
      0.807803	      0.028621	     -0.030277	     94.965050	   -156.787906	      0.020022	      0.171383	      0.443077	      0.104579	      0.438310	      0.099644	      0.221617	      0.091645	      0.020234	      0.092980	      0.020040	      0.066522
      0.808813	      0.028591	     -0.027958	     94.806177	   -157.573522	      0.020021	      0.171331	      0.442055	      0.104527	      0.437266	      0.099593	      0.220494	      0.091788	      0.020231	      0.093115	      0.020040	      0.066588
      0.810317	      0.028552	     -0.024193	     94.568346	   -158.738949	      0.020021	      0.171253	      0.440549	      0.104449	      0.435720	      0.099515	      0.218845	      0.092001	      0.020227	      0.093318	      0.020039	      0.066682
      0.811468	      0.028525	     -0.022304	     94.385199	   -159.622936	      0.020021	      0.171193	      0.439067	      0.104389	      0.434150	      0.099455	      0.217411	      0.092166	      0.020223	      0.093474	      0.020039	      0.066759
      0.812618	      0.028501	     -0.019045	     94.201035	   -160.510958	      0.020020	      0.171132	      0.437596	      0.104329	      0.432586	      0.099395	      0.215992	      0.092332	      0.020220	      0.093631	      0.020038	      0.066830
      0.813769	      0.028481	     -0.017058	     94.015851	   -161.393009	      0.020020	      0.171071	      0.436176	      0.104269	      0.431076	      0.099335	      0.214609	      0.092499	      0.020217	      0.093788	      0.020037	      0.066908
      0.814919	      0.028463	     -0.013759	     93.829652	   -162.279280	      0.020020	      0.171010	      0.434805	      0.104209	      0.429617	      0.099274	      0.213262	      0.092666	      0.020213	      0.093947	      0.020037	      0.066980
      0.816070	      0.028448	     -0.012245	     93.642435	   -163.156730	      0.020019	      0.170949	      0.433480	      0.104148	      0.428209	      0.099214	      0.211950	      0.092835	      0.020210	      0.094106	      0.020036	      0.067059
      0.817220	      0.028436	     -0.009138	     93.454209	   -164.038417	      0.020019	      0.170887	      0.432201	      0.104086	      0.426848	      0.099152	      0.210671	      0.093004	      0.020207	      0.094266	      0.020036	      0.067130
      0.818371	      0.028426	     -0.008412	     93.264973	   -164.907771	      0.020019	      0.170825	      0.430966	      0.104025	      0.425534	      0.099091	      0.209425	      0.093173	      0.020204	      0.094427	      0.020035	      0.067212
      0.819333	      0.028419	     -0.006002	     93.106037	   -165.639126	      0.020019	      0.170772	      0.429965	      0.103973	      0.424470	      0.099039	      0.208407	      0.093316	      0.020201	      0.094562	      0.020035	      0.067271
      0.820294	      0.028414	     -0.005126	     92.946402	   -166.361700	      0.020018	      0.170720	      0.428951	      0.103921	      0.423396	      0.098987	      0.207392	      0.093458	      0.020199	      0.094698	      0.020034	      0.067336
      0.821256	      0.028409	     -0.003870	     92.786073	   -167.083440	      0.020018	      0.170667	      0.427531	      0.103869	      0.421940	      0.098935	      0.206199	      0.093602	      0.020196	      0.094834	      0.020034	      0.067400
      0.822218	      0.028406	     -0.002592	     92.625051	   -167.804193	      0.020018	      0.170614	      0.426107	      0.103816	      0.420484	      0.098882	      0.205011	      0.093747	      0.020194	      0.094971	      0.020033	      0.067464
      0.824239	      0.028404	      0.001393	     92.284360	   -169.323129	      0.020017	      0.170502	      0.423246	      0.103706	      0.417558	      0.098772	      0.202596	      0.094054	      0.020189	      0.095261	      0.020033	      0.067598
      0.825049	      0.028405	      0.001993	     92.146916	   -169.927440	      0.020017	      0.170457	      0.422148	      0.103661	      0.416434	      0.098727	      0.201658	      0.094177	      0.020187	      0.095377	      0.020032	      0.067656
